<svg xmlns="http://www.w3.org/2000/svg" width="30" height="30" fill="#1a1a1a" xmlns:v="https://vecta.io/nano"><g stroke="#d4d4d4"><path d="M358.89-52.609a13.63 13.63 0 0 1-20.445 11.804 13.63 13.63 0 0 1 0-23.608 13.63 13.63 0 0 1 20.445 11.804z"/><path d="M345.296-64.472v11.863m11.863 0h-1.709m-10.154 11.863v-2.018m-11.863-9.845h11.863"/></g><path d="M23.634 6.366v18.708H8.524a2.16 2.16 0 0 1-2.159-2.159 2.16 2.16 0 0 1 2.159-2.159h13.671V3.488H7.805a2.89 2.89 0 0 0-2.878 2.878v17.269a2.89 2.89 0 0 0 2.878 2.878h17.269V6.366h-1.439zM9.244 22.196h12.952v1.439H9.244z"/></svg>