<svg xmlns="http://www.w3.org/2000/svg" xmlns:xlink="http://www.w3.org/1999/xlink" width="96" height="96" viewBox="0 0 96 96">
  <defs>
    <clipPath id="clip-path">
      <rect id="Rectangle_59465" data-name="Rectangle 59465" width="96" height="96" fill="none"/>
    </clipPath>
  </defs>
  <g id="Calandar-Icon-SVG-dvv4csd" transform="translate(0 0)">
    <g id="Group_61485" data-name="Group 61485" transform="translate(0 0)" clip-path="url(#clip-path)">
      <path id="Path_135009" data-name="Path 135009" d="M41.3,13.4a23.217,23.217,0,0,0-5.246-.6c-.506,0-1.005.019-1.5.05a23.25,23.25,0,0,0-21.6,20.574,24.484,24.484,0,0,0-.151,2.625A23.249,23.249,0,1,0,41.3,13.4M36.058,51.428A15.376,15.376,0,1,1,51.432,36.054,15.377,15.377,0,0,1,36.058,51.428" transform="translate(36.697 36.697)"/>
      <path id="Path_135010" data-name="Path 135010" d="M24.352,24.352H16.1v5.254h13.5V16.1H24.352Z" transform="translate(46.148 46.148)"/>
      <path id="Path_135011" data-name="Path 135011" d="M6.405,17.628H8.659A2.63,2.63,0,0,0,11.284,15V2.629A2.633,2.633,0,0,0,8.659,0H6.405A2.63,2.63,0,0,0,3.784,2.629V15a2.627,2.627,0,0,0,2.621,2.625" transform="translate(10.844 0)"/>
      <path id="Path_135012" data-name="Path 135012" d="M17.075,17.628h2.254A2.63,2.63,0,0,0,21.954,15V2.629A2.633,2.633,0,0,0,19.329,0H17.075a2.63,2.63,0,0,0-2.621,2.629V15a2.627,2.627,0,0,0,2.621,2.625" transform="translate(41.423 0)"/>
      <path id="Path_135013" data-name="Path 135013" d="M42.567,65.591a1.828,1.828,0,0,0-1.817-1.856h-29.5a4.5,4.5,0,0,1-4.5-4.5v-36h64.5V35.642a1.477,1.477,0,0,0,1.488,1.465h.015a27.857,27.857,0,0,1,3.611.236A1.455,1.455,0,0,0,78,35.894V8.234a6,6,0,0,0-6-6H67.13V8.609a6.376,6.376,0,0,1-6.375,6.375H58.5a6.372,6.372,0,0,1-6.371-6.371V2.23H25.878V8.609A6.373,6.373,0,0,1,19.5,14.983H17.249a6.372,6.372,0,0,1-6.371-6.371V2.23H6a6,6,0,0,0-6,6v57a6,6,0,0,0,6,6H40.993a1.827,1.827,0,0,0,1.8-2.072,28.367,28.367,0,0,1-.224-3.553Z" transform="translate(0 6.391)"/>
      <path id="Path_135014" data-name="Path 135014" d="M9.882,9.034a5.953,5.953,0,1,0,5.953,5.953A5.953,5.953,0,0,0,9.882,9.034" transform="translate(11.26 25.89)"/>
      <path id="Path_135015" data-name="Path 135015" d="M14.5,9.034a5.953,5.953,0,1,0,5.95,5.953A5.953,5.953,0,0,0,14.5,9.034" transform="translate(24.5 25.89)"/>
      <path id="Path_135016" data-name="Path 135016" d="M13.169,14.987a5.953,5.953,0,1,0,5.95-5.953,5.949,5.949,0,0,0-5.95,5.953" transform="translate(37.74 25.89)"/>
      <path id="Path_135017" data-name="Path 135017" d="M14.5,13.69a5.955,5.955,0,1,0,5.95,5.953A5.953,5.953,0,0,0,14.5,13.69" transform="translate(24.5 39.234)"/>
      <path id="Path_135018" data-name="Path 135018" d="M9.882,13.69a5.955,5.955,0,1,0,5.953,5.953A5.953,5.953,0,0,0,9.882,13.69" transform="translate(11.26 39.234)"/>
    </g>
  </g>
</svg>
