<svg xmlns="http://www.w3.org/2000/svg" width="96" height="96" xmlns:v="https://vecta.io/nano"><defs><clipPath id="A"><path fill="none" d="M0 0h96v96H0z"/></clipPath></defs><g clip-path="url(#A)"><path d="M77.997 50.097c-1.72-.399-3.48-.6-5.246-.6l-1.5.05c-11.23.727-20.328 9.392-21.6 20.574a24.5 24.5 0 0 0-.151 2.625c0 12.156 9.365 22.26 21.486 23.182s22.906-7.65 24.744-19.667-5.891-23.42-17.734-26.164m-5.242 38.028c-6.219.001-11.827-3.745-14.207-9.491a15.38 15.38 0 0 1 20.091-20.091c5.746 2.38 9.492 7.988 9.491 14.207a15.38 15.38 0 0 1-15.374 15.374M70.5 70.5h-8.252v5.254h13.5V62.248H70.5zM17.249 17.628h2.254A2.63 2.63 0 0 0 22.128 15V2.629C22.126 1.18 20.952.004 19.503 0h-2.254a2.63 2.63 0 0 0-2.621 2.629V15a2.63 2.63 0 0 0 2.621 2.625m41.249.003h2.254A2.63 2.63 0 0 0 63.377 15V2.629C63.375 1.18 62.201.004 60.752 0h-2.254a2.63 2.63 0 0 0-2.621 2.629V15a2.63 2.63 0 0 0 2.621 2.625M42.567 71.982a1.83 1.83 0 0 0-1.817-1.856h-29.5a4.5 4.5 0 0 1-4.5-4.5v-36h64.5v12.407a1.48 1.48 0 0 0 1.488 1.465h.015c1.208 0 2.414.079 3.611.236.415.052.833-.077 1.146-.354s.492-.676.49-1.095v-27.66a6 6 0 0 0-6-6h-4.87V15a6.38 6.38 0 0 1-6.375 6.375H58.5c-3.518-.001-6.37-2.853-6.371-6.371V8.621H25.878V15c0 1.691-.672 3.313-1.868 4.509a6.37 6.37 0 0 1-4.51 1.865h-2.251c-3.518-.001-6.37-2.853-6.371-6.371V8.621H6a6 6 0 0 0-6 6v57a6 6 0 0 0 6 6h34.993a1.83 1.83 0 0 0 1.369-.629c.345-.397.502-.923.431-1.443a28.32 28.32 0 0 1-.224-3.553zM21.142 34.924c-3.288 0-5.953 2.665-5.953 5.953s2.665 5.953 5.953 5.953 5.953-2.665 5.953-5.953a5.95 5.95 0 0 0-1.744-4.209c-1.117-1.116-2.631-1.744-4.209-1.744"/><path d="M39 34.924c-2.408-.001-4.58 1.448-5.502 3.673s-.414 4.785 1.289 6.489 4.263 2.213 6.488 1.292 3.676-3.092 3.676-5.5c0-3.287-2.663-5.951-5.95-5.953m11.908 5.952c0 2.408 1.451 4.579 3.676 5.5s4.786.411 6.488-1.292 2.211-4.264 1.289-6.489-3.094-3.674-5.502-3.673a5.95 5.95 0 0 0-5.95 5.953M39 52.924c-2.409-.002-4.582 1.448-5.505 3.673s-.415 4.788 1.289 6.492 4.265 2.214 6.491 1.292 3.677-3.094 3.676-5.504c0-3.287-2.663-5.951-5.95-5.953m-17.859 0c-2.409-.001-4.581 1.45-5.503 3.675s-.413 4.787 1.29 6.491 4.265 2.213 6.491 1.29 3.676-3.094 3.675-5.503a5.95 5.95 0 0 0-1.744-4.209c-1.117-1.116-2.631-1.744-4.209-1.744"/></g></svg>