<svg xmlns="http://www.w3.org/2000/svg" width="97.022" height="97.026" viewBox="0 0 97.022 97.026">
  <path id="Clock-Icon-09iuhhjk" d="M0,48.011A48.011,48.011,0,1,1,48.011,96.026,48.012,48.012,0,0,1,0,48.011Zm9.826,0A38.185,38.185,0,1,0,48.011,9.83,38.183,38.183,0,0,0,9.826,48.011ZM38.336,62.36a2.143,2.143,0,0,1,0-3.028l8.425-8.425V29.165a2.142,2.142,0,0,1,4.283,0V51.793a2.157,2.157,0,0,1-.625,1.516l-9.055,9.05a2.145,2.145,0,0,1-3.028,0Z" transform="translate(0.5 0.5)" stroke="rgba(0,0,0,0)" stroke-miterlimit="10" stroke-width="1"/>
</svg>
